<svg version="1.1" xmlns="http://www.w3.org/2000/svg" xmlns:xlink="http://www.w3.org/1999/xlink" width="68.1164" height="61.47406" viewBox="0,0,68.1164,61.47406"><defs><linearGradient x1="240.86667" y1="151.46667" x2="240.86667" y2="205.8" gradientUnits="userSpaceOnUse" id="color-1"><stop offset="0" stop-color="#df8629"></stop><stop offset="1" stop-color="#ca7a24"></stop></linearGradient></defs><g transform="translate(-205.86667,-151.46666)"><g data-paper-data="{&quot;isPaintingLayer&quot;:true}" fill-rule="nonzero" stroke="none" stroke-linecap="butt" stroke-linejoin="miter" stroke-miterlimit="10" stroke-dasharray="" stroke-dashoffset="0" style="mix-blend-mode: normal"><g><path d="M270.2,193.3c0,6.21255 -8.37092,10.69179 -16.81418,17.4382c-2.89336,2.31188 -9.42634,1.72847 -13.51915,1.72847c-1.53715,0 -6.80469,0.74611 -8.41949,0.36628c-2.9152,-0.68571 -2.20914,-2.78188 -4.9222,-3.53579c-2.24623,-0.62419 -4.32276,-0.29762 -6.06334,-0.89561c-7.82369,-2.68791 -13.92831,-15.10638 -13.92831,-20.10154c0,-8.19223 16.06327,-9.83334 33,-9.83334c11.87776,0 28.845,-4.40041 33.9388,0.37649c2.16955,2.03457 -3.27213,12.00985 -3.27213,14.45685z" fill="#6c4113" stroke-width="0.3"></path><path d="M273.86667,176.96667c0,2.17825 0.1505,2.23619 -7.90026,16.03033c-0.45437,0.77852 -1.93168,1.6008 -2.43307,2.46967c-1.71463,2.97135 -0.72913,4.30057 -2.90326,7.40116c-0.50876,0.72556 -3.08102,-0.65746 -3.74061,0.62116c-1.37676,2.66887 -13.46758,5.32174 -23.46865,4.64807c-5.79987,-0.39068 -11.56061,-3.89119 -12.39494,-3.97698c-4.38465,-0.45084 -10.20435,-9.3851 -13.14688,-16.90107c-0.96589,-2.46713 0.19837,-3.78144 -0.06289,-5.59273c-0.29217,-2.02553 -1.94943,-4.42199 -1.94943,-4.69961c0,-2.30119 15.22232,-4.16666 34,-4.16666c18.77768,0 34,1.86548 34,4.16666z" fill="#a3631d" stroke-width="0"></path><path d="M273.2,178.63333c0,4.35952 -1.5555,6.81255 -3.72767,10.46371c-5.30356,8.91467 -15.93709,16.70296 -28.60566,16.70296c-17.8572,0 -32.33334,-12.16294 -32.33334,-27.16667c0,-1.7971 -2.39801,-3.64033 -1.51635,-5.03654c1.41116,-2.23471 3.87211,-3.84486 5.39461,-6.20854c2.49139,-3.86787 4.18037,-7.51642 7.89556,-10.34253c4.43875,-3.37652 10.19986,-5.57905 16.89285,-5.57905c7.90325,0 17.81088,0.38244 23.42773,4.33918c3.31022,2.33185 2.94198,6.98172 5.16014,10.70772c2.52229,4.23685 7.41213,7.6698 7.41213,12.11976z" fill="url(#color-1)" stroke-width="0"></path><path d="M229.73975,168.68946c-1.60124,2.24978 -4.29754,3.07841 -6.02237,1.85079c-1.72483,-1.22761 -1.82503,-4.04659 -0.22379,-6.29637c1.60124,-2.24978 4.29755,-3.07841 6.02238,-1.8508c1.72483,1.22761 1.82502,4.0466 0.22379,6.29638z" fill="#622900" stroke-width="0"></path><path d="M229.06632,169.02901c-0.70307,1.10734 -1.83997,1.64504 -2.53934,1.201c-0.69937,-0.44404 -0.69637,-1.70168 0.0067,-2.80902c0.70307,-1.10734 1.83997,-1.64503 2.53934,-1.20099c0.69937,0.44404 0.69637,1.70168 -0.0067,2.80901z" fill="#a3561f" stroke-width="0"></path><path d="M243.22263,180.37189c-1.97699,2.77772 -5.30603,3.8008 -7.43561,2.28511c-2.12958,-1.51569 -2.25329,-4.99618 -0.27631,-7.7739c1.97699,-2.77772 5.30603,-3.8008 7.43561,-2.28511c2.12958,1.51569 2.25329,4.99618 0.27631,7.7739z" fill="#622900" stroke-width="0"></path><path d="M238.66632,178.02901c-0.70307,1.10734 -1.83997,1.64504 -2.53934,1.201c-0.69937,-0.44404 -0.69637,-1.70168 0.0067,-2.80902c0.70307,-1.10734 1.83997,-1.64503 2.53934,-1.20099c0.69937,0.44404 0.69637,1.70168 -0.0067,2.80901z" fill="#a3561f" stroke-width="0"></path><path d="M229.55573,190.18543c2.12933,2.38032 2.98736,5.7391 1.91645,7.50203c-1.07091,1.76292 -3.66523,1.26242 -5.79456,-1.11791c-2.12933,-2.38032 -2.98735,-5.7391 -1.91644,-7.50203c1.07091,-1.76292 3.66522,-1.26242 5.79456,1.11791z" fill="#622900" stroke-width="0"></path><path d="M228.2578,189.49448c1.07603,0.7501 1.56428,1.9091 1.09053,2.5887c-0.47375,0.6796 -1.73009,0.62244 -2.80612,-0.12766c-1.07603,-0.7501 -1.56428,-1.9091 -1.09053,-2.5887c0.47375,-0.6796 1.73009,-0.62244 2.80612,0.12766z" fill="#a3561f" stroke-width="0"></path><path d="M256.80573,191.12873c2.12934,1.77012 2.98736,4.26785 1.91645,5.57885c-1.07091,1.31099 -3.66523,0.93879 -5.79456,-0.83132c-2.12933,-1.77012 -2.98735,-4.26785 -1.91644,-5.57885c1.07091,-1.31099 3.66522,-0.93879 5.79456,0.83132z" fill="#622900" stroke-width="0"></path><path d="M254.53067,192.67145c-0.49971,0.78704 -1.30776,1.16922 -1.80484,0.85361c-0.49708,-0.31561 -0.49495,-1.20947 0.00476,-1.99651c0.49971,-0.78704 1.30776,-1.16921 1.80484,-0.85361c0.49708,0.31561 0.49495,1.20947 -0.00476,1.99651z" fill="#a3561f" stroke-width="0"></path><path d="M255.15,161.975c0,1.72589 -1.34314,3.125 -3,3.125c-1.65686,0 -3,-1.39911 -3,-3.125c0,-1.72589 1.34314,-3.125 3,-3.125c1.65686,0 3,1.39911 3,3.125z" fill="#622900" stroke-width="0"></path><path d="M251.9,162.475c0,0.62132 -0.27982,1.125 -0.625,1.125c-0.34518,0 -0.625,-0.50368 -0.625,-1.125c0,-0.62132 0.27982,-1.125 0.625,-1.125c0.34518,0 0.625,0.50368 0.625,1.125z" fill="#a3561f" stroke-width="0"></path><path d="M261.33975,179.48946c-1.60123,2.24978 -4.29754,3.07841 -6.02237,1.8508c-1.72483,-1.22761 -1.82503,-4.04659 -0.22379,-6.29637c1.60124,-2.24978 4.29754,-3.07841 6.02237,-1.8508c1.72483,1.22761 1.82502,4.04659 0.22379,6.29637z" fill="#622900" stroke-width="0"></path><path d="M258.06632,177.62901c-0.70307,1.10734 -1.83997,1.64504 -2.53934,1.201c-0.69937,-0.44404 -0.69637,-1.70168 0.0067,-2.80902c0.70307,-1.10734 1.83997,-1.64503 2.53934,-1.20099c0.69937,0.44404 0.69637,1.70168 -0.0067,2.80901z" fill="#a3561f" stroke-width="0"></path><path d="M219.55,178.975c0,1.72589 -1.34314,3.125 -3,3.125c-1.65686,0 -3,-1.39911 -3,-3.125c0,-1.72589 1.34314,-3.125 3,-3.125c1.65686,0 3,1.39911 3,3.125z" fill="#622900" stroke-width="0"></path><path d="M217.5,180.275c0,0.62132 -0.27982,1.125 -0.625,1.125c-0.34518,0 -0.625,-0.50368 -0.625,-1.125c0,-0.62132 0.27982,-1.125 0.625,-1.125c0.34518,0 0.625,0.50368 0.625,1.125z" fill="#a3561f" stroke-width="0"></path></g></g></g></svg>